<svg version="1.1" id="Layer_1" xmlns="http://www.w3.org/2000/svg" xmlns:xlink="http://www.w3.org/1999/xlink" x="0px" y="0px"
	 width="100%" viewBox="0 0 1000 250" enable-background="new 0 0 1000 250" xml:space="preserve">
<path fill="#FFFFFF" opacity="1.000000" stroke="none" 
	d="
M369.000000,251.000000 
	C246.358078,251.000000 123.716148,251.000000 1.037113,251.000000 
	C1.037113,167.708237 1.037113,84.416443 1.037113,1.062326 
	C334.224548,1.062326 667.449097,1.062326 1000.836792,1.062326 
	C1000.836792,84.333122 1000.836792,167.666504 1000.836792,251.000000 
	C913.227966,251.000000 825.578979,251.000000 737.465027,250.531525 
	C737.000000,244.135239 737.000000,238.207443 737.000000,232.000000 
	C756.584045,232.000000 775.669189,232.018616 794.754333,231.995880 
	C827.831238,231.956482 860.908203,231.891479 894.234070,231.899078 
	C894.648865,231.918427 894.814758,231.875885 895.380737,231.905884 
	C896.861084,231.931976 897.941284,231.885544 899.482788,231.913727 
	C904.280090,231.988342 908.616150,231.988342 912.837219,231.988342 
	C912.837219,228.899841 912.837219,226.457413 912.899109,223.765930 
	C912.918457,223.351181 912.875977,223.185471 912.989014,222.683334 
	C913.911499,220.597290 914.455994,218.703552 915.481079,217.121094 
	C922.882507,205.695175 920.386230,195.145142 912.897095,184.734482 
	C912.919556,184.318405 912.878418,184.151779 912.912842,183.522858 
	C912.988525,155.836670 912.988525,128.612778 912.988525,101.551895 
	C912.310974,101.269562 912.023865,101.045006 911.736877,101.045219 
	C873.162903,101.073715 834.588867,101.118645 795.765808,101.100952 
	C795.351013,101.081635 795.185242,101.124146 794.682800,101.095474 
	C793.892090,101.071739 793.438171,101.119202 792.734619,101.103012 
	C792.318420,101.080513 792.151794,101.121666 791.522827,101.087158 
	C773.144348,101.011505 755.228210,101.011505 736.942871,101.011505 
	C736.942871,83.136887 736.942871,65.747292 736.942871,48.000000 
	C734.785156,48.000000 732.994873,48.000000 731.204590,48.000000 
	C673.458496,48.000000 615.712463,47.992035 557.966370,48.007195 
	C547.319763,48.009991 536.673096,48.106377 525.641235,48.209278 
	C524.525330,48.370842 523.796631,48.565483 523.063904,48.581619 
	C516.424805,48.727825 509.785065,48.842831 502.921570,48.582642 
	C500.872345,48.132206 499.047028,48.008892 497.221649,48.008404 
	C456.254883,47.997452 415.288086,48.000000 374.321320,48.000000 
	C372.574768,48.000000 370.828217,48.000000 368.696381,48.000000 
	C368.696381,41.224022 368.696381,35.146492 368.696381,29.000008 
	C367.140106,29.000008 365.979462,29.000006 364.818817,29.000006 
	C283.218323,29.000004 201.617828,28.999287 120.017326,29.006298 
	C118.688644,29.006413 117.359955,29.100931 115.594849,29.089798 
	C113.094460,29.068785 111.030510,29.109367 108.506943,29.080441 
	C104.454597,29.010929 100.861862,29.010929 97.011246,29.010929 
	C97.011246,49.545189 97.004105,69.588837 97.051750,89.632355 
	C97.052963,90.141945 97.656464,90.650085 97.987488,91.573967 
	C96.639191,102.003685 96.571129,112.416008 93.631409,121.942146 
	C88.923409,137.198410 88.689056,153.087006 85.070488,168.440659 
	C82.952881,177.425690 89.630371,184.846344 99.487213,184.917419 
	C189.579926,184.989105 279.210419,184.989105 369.000000,184.989105 
	C369.000000,207.421753 369.000000,229.210876 369.000000,251.000000 
z"/>
<path fill="#000000" opacity="1.000000" stroke="none" 
	d="
M369.468658,251.000000 
	C369.000000,229.210876 369.000000,207.421753 369.000000,184.989105 
	C279.210419,184.989105 189.579926,184.989105 99.478668,184.529541 
	C100.900673,178.614807 102.951439,173.208008 104.640648,167.690506 
	C106.251106,162.430252 107.707291,157.100204 108.810287,151.714600 
	C109.630363,147.710419 109.265358,143.429596 110.326172,139.515350 
	C112.944328,129.854782 115.678642,120.186646 119.136063,110.805252 
	C121.780411,103.630043 120.242844,95.574524 124.812881,88.746681 
	C126.516960,86.200706 125.823082,82.051857 126.231171,78.634918 
	C126.343353,77.695648 126.266190,76.657097 126.649040,75.838638 
	C130.645187,67.295441 130.519882,58.144806 129.840256,49.170071 
	C129.158310,40.164742 125.223442,32.653419 116.031273,29.151394 
	C117.359955,29.100931 118.688644,29.006413 120.017326,29.006298 
	C201.617828,28.999287 283.218323,29.000004 364.818817,29.000006 
	C365.979462,29.000006 367.140106,29.000008 368.696381,29.000008 
	C368.696381,35.146492 368.696381,41.224022 368.696381,48.000000 
	C370.828217,48.000000 372.574768,48.000000 374.321320,48.000000 
	C415.288086,48.000000 456.254883,47.997452 497.221649,48.008404 
	C499.047028,48.008892 500.872345,48.132206 502.734955,48.892723 
	C498.377502,52.376976 493.249176,54.468906 489.768280,58.128048 
	C485.104187,63.031044 480.943604,68.765923 477.949707,74.826752 
	C472.737000,85.379303 467.750397,96.188736 464.179443,107.372757 
	C458.928619,123.818069 457.519531,140.852417 459.936951,158.127975 
	C461.047180,166.061920 464.514038,172.442734 470.992065,176.940231 
	C480.332367,183.424942 501.408997,185.040466 510.307556,173.298843 
	C513.423828,169.186951 517.235352,165.602005 521.531372,160.898300 
	C521.779236,163.145615 522.095703,164.100906 521.948059,164.978104 
	C520.727417,172.231735 519.279053,179.449753 518.194153,186.722504 
	C517.557068,190.993454 516.701111,194.741989 513.508911,198.215302 
	C506.224213,206.141525 499.286621,214.428619 492.747894,222.981827 
	C489.239777,227.570816 486.681152,233.249023 488.201080,239.176239 
	C489.268646,243.339417 492.007477,247.074020 494.000000,251.000000 
	C452.645782,251.000000 411.291534,251.000000 369.468658,251.000000 
M268.699890,167.795853 
	C269.482758,166.566467 270.265625,165.337067 271.827606,164.017380 
	C272.871246,164.050095 273.914886,164.082825 275.012177,164.833664 
	C276.611755,166.831238 278.211334,168.828812 280.339172,171.021210 
	C281.594330,170.697861 282.849518,170.374512 284.917480,170.007812 
	C285.941010,169.513718 287.612549,169.248489 287.881256,168.487762 
	C289.439026,164.077423 290.851807,159.595978 291.968597,155.053757 
	C294.654968,144.127838 300.048920,134.526337 306.281921,125.345741 
	C307.108307,124.128548 308.901794,123.567932 310.247406,122.703247 
	C310.600037,124.573891 310.324738,125.661171 309.750793,126.557190 
	C304.009125,135.520935 301.313446,145.315399 302.056702,155.921280 
	C302.405396,160.897568 303.955231,165.742859 308.747925,168.153946 
	C313.925690,170.758774 319.317596,171.559891 324.381470,167.295914 
	C326.447998,165.555832 328.897736,164.270874 331.501953,162.563263 
	C333.621460,171.156815 337.234039,177.012711 346.699036,178.571411 
	C357.456512,180.342957 358.216034,169.933807 364.533936,165.675934 
	C366.442444,169.664719 368.076935,173.511871 370.075653,177.159454 
	C373.247345,182.947678 383.373077,185.236526 388.219452,181.098160 
	C391.439423,178.348602 394.602631,175.284149 396.928864,171.787003 
	C402.063385,164.067963 407.090210,156.208984 411.287842,147.962646 
	C413.527802,143.562210 413.951630,138.237320 415.195160,133.329651 
	C414.573792,132.960541 413.952423,132.591415 413.331085,132.222290 
	C411.896149,133.774887 410.081268,135.118515 409.092407,136.916428 
	C404.939545,144.467056 401.390289,152.370621 396.917786,159.717468 
	C393.696045,165.009705 389.364655,169.626450 385.528229,174.544495 
	C385.020020,174.261719 384.511810,173.978943 384.003601,173.696152 
	C384.685486,167.784698 384.333282,161.511642 386.249512,156.031815 
	C391.336151,141.485703 394.009979,126.770782 394.206390,111.327744 
	C394.328247,101.746994 396.402527,92.182877 397.726349,82.628738 
	C398.508209,76.986023 400.135040,71.222343 396.920563,65.959572 
	C395.663330,63.901299 393.355103,61.932564 391.102020,61.162960 
	C387.620605,59.973778 386.332581,63.212555 385.105713,65.726952 
	C383.966461,68.061813 383.631348,71.164497 381.875641,72.742416 
	C378.553619,75.728073 378.597687,79.472038 378.001678,83.190323 
	C376.148651,94.751152 374.306885,106.313782 372.633270,116.795403 
	C368.072296,117.422531 363.603058,117.086388 360.017822,118.706444 
	C348.807312,123.772110 342.248627,133.286591 336.873169,144.060822 
	C334.085632,149.647919 329.843536,154.576019 325.830841,159.449646 
	C324.392242,161.196869 321.697479,161.909836 319.225952,163.290405 
	C319.131592,161.944839 318.940521,161.404755 319.086426,160.980621 
	C322.518005,151.006744 326.038971,141.063156 329.388580,131.062103 
	C329.877014,129.603729 329.820404,127.845848 329.585968,126.291420 
	C329.281494,124.272507 328.843994,122.167526 327.931885,120.369400 
	C326.251770,117.057121 324.831848,113.136772 322.113403,110.947723 
	C318.713379,108.209824 315.114990,110.467407 312.107422,113.296265 
	C308.458008,116.728844 304.532623,119.868034 300.288025,123.510559 
	C299.327271,120.431084 298.886383,117.792610 297.694275,115.554176 
	C296.583008,113.467438 294.672852,111.806114 292.780304,109.283234 
	C290.120453,108.291519 287.460602,107.299805 284.600616,106.233482 
	C284.034363,109.165840 283.703400,110.879807 283.097107,113.184090 
	C283.122772,113.399681 283.148468,113.615273 282.995697,114.321571 
	C282.754181,114.765457 282.512665,115.209343 282.080292,116.230324 
	C282.111542,116.430504 282.142822,116.630684 281.995697,117.321571 
	C281.754181,117.765457 281.512634,118.209343 281.080292,119.230324 
	C281.111542,119.430504 281.142822,119.630684 280.995697,120.321571 
	C280.754181,120.765457 280.512634,121.209343 280.080292,122.230324 
	C280.111542,122.430504 280.142822,122.630684 279.995697,123.321571 
	C279.754181,123.765457 279.512634,124.209343 279.080292,125.230324 
	C279.111542,125.430504 279.142822,125.630684 278.995728,126.321579 
	C278.754181,126.765465 278.512634,127.209343 278.080200,128.242859 
	C278.112091,128.446976 278.144012,128.651077 278.029327,129.462418 
	C277.741730,130.641953 277.454163,131.821472 276.880493,133.609253 
	C276.642548,134.406677 276.404572,135.204086 275.921692,136.571487 
	C275.715637,136.919052 275.509613,137.266617 275.085480,138.222641 
	C275.116180,138.435883 275.146881,138.649139 275.028839,139.612183 
	C274.806793,141.608444 274.584778,143.604721 274.095398,146.205109 
	C274.122467,146.423660 274.149506,146.642197 274.030396,147.510330 
	C273.793060,148.541962 273.555695,149.573578 273.087830,151.199371 
	C273.116608,151.409866 273.145355,151.620346 272.995728,152.321533 
	C272.754211,152.765442 272.512665,153.209351 272.185547,154.027618 
	C272.185547,154.027618 272.464386,154.291718 271.914948,154.668839 
	C270.978088,155.971481 270.100647,157.322159 269.093536,158.568008 
	C265.680115,162.790649 262.220734,166.976181 258.046875,171.491196 
	C256.508942,172.025909 254.971008,172.560623 252.520645,173.412552 
	C255.039154,163.868195 257.000519,155.382645 259.570465,147.085602 
	C261.145081,142.001984 261.130402,137.908188 255.786545,134.288132 
	C251.837418,130.769348 248.891907,130.991104 246.325165,135.221176 
	C246.272324,135.814224 246.219482,136.407288 246.021469,137.683243 
	C245.791504,138.318222 245.561523,138.953186 245.089890,140.188843 
	C245.117966,140.402847 245.146042,140.616837 244.995728,141.321548 
	C244.754196,141.765442 244.512665,142.209320 244.080399,143.221085 
	C244.111328,143.418365 244.142242,143.615631 243.992432,144.286102 
	C243.717163,144.857712 243.441895,145.429337 242.858429,146.637115 
	C242.279770,147.633347 241.701126,148.629593 240.650192,149.935089 
	C240.395065,150.609467 240.139938,151.283829 239.342789,152.196289 
	C239.212067,152.761948 239.081345,153.327621 238.339508,154.168182 
	C237.521255,155.431534 236.703003,156.694885 235.274567,158.226440 
	C232.530045,160.112274 229.785538,161.998108 226.691544,163.177109 
	C226.541306,161.269653 225.666595,159.028870 226.364670,157.511734 
	C229.603745,150.472198 232.435242,142.993057 237.049210,136.913269 
	C241.176697,131.474503 245.762985,124.997711 254.507812,125.806480 
	C255.226715,125.872963 257.132141,123.123093 256.826538,122.512184 
	C255.539810,119.940178 253.622849,117.683487 251.770828,114.528458 
	C245.503052,111.306244 239.806580,113.079422 233.894287,116.519730 
	C233.603638,116.577003 233.395859,116.739891 232.734467,117.047531 
	C232.094360,117.423615 231.454254,117.799706 230.192780,118.357056 
	C229.552170,118.907501 228.911545,119.457947 227.734467,120.047539 
	C227.094360,120.423630 226.454254,120.799713 225.102524,121.462074 
	C224.110565,123.179970 223.118607,124.897865 221.621384,126.947723 
	C221.028595,127.964882 220.435806,128.982040 219.367432,130.180222 
	C219.285736,130.328873 219.204041,130.477524 218.642883,130.941422 
	C218.376251,131.627457 218.109619,132.313492 217.367554,133.180161 
	C217.285873,133.328720 217.204178,133.477280 216.650192,133.935089 
	C216.395065,134.609467 216.139938,135.283829 215.266541,136.296539 
	C213.566574,140.198486 211.866608,144.100433 209.933411,148.540161 
	C209.677826,149.027100 209.422241,149.514038 208.861389,150.633667 
	C206.954666,153.261047 205.575562,156.539673 202.090515,156.866165 
	C201.345505,146.817398 204.673721,137.564941 205.453537,127.866890 
	C206.165161,119.016617 208.659500,110.253502 209.379135,101.141350 
	C210.095306,92.073326 213.679764,83.245064 215.798676,74.262634 
	C216.189804,72.604485 216.146225,70.394592 215.341675,68.990288 
	C213.183853,65.223907 210.410004,61.817039 208.056458,58.154530 
	C205.094757,53.545628 201.035660,51.503536 195.435486,52.132870 
	C194.933105,53.727383 194.229019,55.223690 194.008041,56.788235 
	C192.912170,64.547363 192.050293,72.340210 190.907776,80.091965 
	C188.673538,95.250565 186.415466,110.407410 183.939529,125.527695 
	C183.037460,131.036438 183.057693,136.954422 178.846039,141.439377 
	C175.045761,145.486267 171.503922,149.942642 164.989502,151.108246 
	C168.252899,145.115234 167.572128,139.460983 165.573914,134.468185 
	C162.183777,125.997604 157.764618,117.938843 153.897079,109.952888 
	C154.662476,108.996330 155.060974,108.653885 155.264297,108.219978 
	C157.160721,104.172798 159.818253,100.237350 160.499771,95.987991 
	C160.767166,94.320709 156.576401,91.951950 154.441483,89.876381 
	C153.909119,89.358818 153.475891,88.739304 152.293655,87.803932 
	C146.567291,86.156754 143.842285,87.626709 140.272446,94.289192 
	C139.237183,96.192894 138.201904,98.096588 137.051559,100.803535 
	C138.116837,107.162994 141.412216,113.276749 138.862320,120.632164 
	C136.938187,124.629852 134.803024,128.545761 133.204712,132.669739 
	C132.647476,134.107529 133.415604,136.059006 133.578430,137.775879 
	C135.196045,136.882935 137.423386,136.383453 138.305786,135.016052 
	C140.207733,132.068771 141.352509,128.642532 142.932465,125.474815 
	C144.234100,122.865135 144.805237,124.179672 145.050308,126.799675 
	C145.492813,131.399048 145.935318,135.998428 146.094421,141.404175 
	C146.289597,142.736526 146.484772,144.068893 146.127274,145.988083 
	C145.870987,147.522202 145.614716,149.056305 145.094604,151.179352 
	C145.120743,151.392868 145.146866,151.606369 144.894608,152.505676 
	C140.941650,153.392670 136.988708,154.279648 132.317764,155.233337 
	C130.886765,156.821335 129.425858,158.383545 128.030563,160.002335 
	C124.348930,164.273712 124.924789,168.262512 129.978012,170.908234 
	C132.512054,172.234985 135.464890,172.768570 138.237259,173.632141 
	C148.046906,176.687729 157.734085,171.724426 161.071365,161.991821 
	C161.531006,160.651367 161.889511,158.723694 162.884689,158.209518 
	C169.110779,154.992630 175.504364,152.099945 180.949173,149.522751 
	C183.762009,154.091095 186.071396,160.470779 190.530899,164.426559 
	C196.251068,169.500626 202.607025,164.630951 208.122787,162.011124 
	C212.067444,167.409210 214.939896,173.612854 223.081390,173.538818 
	C223.424805,173.373169 223.768234,173.207504 224.833160,173.005417 
	C226.902939,171.708389 228.972717,170.411362 231.658447,168.833420 
	C235.900009,164.601730 235.900009,164.601730 238.027374,165.829163 
	C239.001266,169.254440 239.975174,172.679718 241.008560,176.813202 
	C242.883453,180.398895 245.772781,182.261780 250.081390,182.538818 
	C250.424820,182.373169 250.768234,182.207520 251.886322,182.006653 
	C257.509308,181.359970 261.306854,178.185333 264.407776,173.028290 
	C265.641815,171.367676 266.875854,169.707062 268.699890,167.795853 
z"/>
<path fill="#000000" opacity="1.000000" stroke="none" 
	d="
M893.985107,231.837204 
	C860.908203,231.891479 827.831238,231.956482 794.754333,231.995880 
	C775.669189,232.018616 756.584045,232.000000 737.000000,232.000000 
	C737.000000,238.207443 737.000000,244.135239 737.000000,250.531525 
	C661.645752,251.000000 586.291565,251.000000 510.338165,250.644852 
	C510.999908,249.271301 512.278564,248.274048 513.518372,247.230606 
	C517.324280,244.027618 521.882080,241.376785 524.771667,237.488724 
	C534.328003,224.630173 539.241028,209.693939 541.931274,194.065903 
	C543.219116,186.583878 544.327515,179.326660 551.534058,174.884369 
	C552.586731,174.235489 553.188782,172.874084 554.040710,171.877701 
	C556.654175,168.821075 559.287659,165.781631 561.971008,162.668625 
	C566.374878,167.351883 569.085205,172.754608 576.181580,173.290878 
	C583.344604,173.832169 585.616150,166.394577 591.444946,164.779526 
	C592.038696,167.654831 592.456726,170.062836 593.040283,172.430038 
	C594.549316,178.552032 598.028687,181.595230 603.994873,182.265045 
	C604.434875,182.339798 604.771667,182.190201 605.493774,182.024933 
	C609.556396,179.774643 614.045593,178.246368 616.735901,175.153397 
	C621.808289,169.321686 625.844604,162.588760 630.538757,155.906967 
	C631.426758,157.099915 632.125671,158.438339 633.177917,159.383316 
	C637.644043,163.393860 640.395996,170.532562 648.138000,168.860214 
	C651.441956,168.146545 654.417725,165.913635 657.625488,164.330200 
	C658.304810,166.598724 658.995178,168.936737 659.705017,171.268799 
	C662.883850,181.712616 678.477173,182.944061 687.111877,179.825027 
	C695.697021,176.723831 702.210510,170.699554 707.113831,162.882919 
	C708.948059,159.959015 711.553101,157.518677 714.481201,154.061417 
	C715.325684,164.148331 717.166016,172.313339 727.994873,174.265045 
	C728.434875,174.339798 728.771667,174.190201 729.482056,174.025024 
	C731.245972,173.618347 732.636169,173.227264 734.264221,172.838104 
	C734.839539,172.662613 734.950867,172.392105 734.993164,171.717804 
	C739.438965,168.097931 743.727661,164.788757 748.381714,161.197723 
	C752.071655,167.874451 754.801575,174.220993 762.994873,174.265030 
	C763.434875,174.339783 763.771667,174.190186 764.460815,174.023666 
	C765.884277,173.616547 766.955322,173.226334 768.264221,172.838074 
	C768.839539,172.662613 768.950867,172.392105 768.989136,171.722565 
	C772.770203,168.223145 776.398254,165.029663 780.264221,161.838104 
	C780.839539,161.662613 780.950867,161.392105 780.911987,160.671188 
	C783.339172,156.579697 785.690430,152.845520 788.291077,149.006714 
	C789.082153,148.932739 789.623901,148.963379 790.101807,149.456589 
	C790.025513,153.581497 789.953552,157.244812 790.014404,160.905930 
	C790.107300,166.494705 794.206177,169.504807 798.228088,171.891449 
	C801.730713,173.969971 805.922913,174.491074 809.567688,171.165756 
	C812.304504,168.668823 815.241699,166.391479 818.621216,163.573120 
	C818.799561,165.203156 818.866760,166.126862 819.005981,167.039581 
	C819.942627,173.180588 821.100952,179.358109 827.852722,181.837692 
	C833.464294,183.898483 839.407410,180.924500 844.378479,174.237137 
	C848.324890,168.928146 852.303772,163.643265 856.935303,157.456604 
	C856.474976,163.732574 857.402771,168.948746 862.996521,171.302475 
	C868.310852,173.538666 873.202881,171.855728 877.396362,167.624802 
	C877.676147,167.915100 877.955933,168.205383 878.235779,168.495682 
	C877.735413,170.945160 877.235107,173.394638 876.956238,174.759857 
	C872.522705,176.471451 868.835022,177.425018 865.615967,179.219452 
	C851.928894,186.849396 842.906067,200.743118 845.041443,218.273697 
	C845.715515,223.807083 849.022522,227.414841 853.902832,227.954544 
	C855.878113,228.173019 857.894165,228.023010 859.994873,228.265045 
	C860.434875,228.339798 860.771667,228.190201 861.505737,228.025162 
	C870.178040,227.942154 874.132080,221.281784 877.733093,215.881927 
	C884.136414,206.279861 888.989563,195.643982 894.667786,185.112976 
	C903.308533,184.742706 912.171204,193.320877 913.076538,202.887115 
	C914.229980,215.074799 907.183899,226.943497 893.735779,226.161896 
	C893.160461,226.337387 893.049133,226.607895 893.115234,227.326370 
	C893.432739,228.795456 893.798828,229.909668 894.098694,231.222504 
	C894.032471,231.421127 893.985107,231.837204 893.985107,231.837204 
z"/>
<path fill="#08609F" opacity="1.000000" stroke="none" 
	d="
M788.041687,149.111359 
	C785.690430,152.845520 783.339172,156.579697 780.737976,160.762329 
	C780.270996,161.372650 780.117126,161.581116 780.026367,161.836166 
	C776.398254,165.029663 772.770203,168.223145 768.815063,171.813705 
	C768.270996,172.372650 768.117126,172.581116 768.026367,172.836151 
	C766.955322,173.226334 765.884277,173.616547 764.156494,174.015778 
	C763.296997,174.030106 763.094299,174.035385 762.891663,174.040680 
	C754.801575,174.220993 752.071655,167.874451 748.381714,161.197723 
	C743.727661,164.788757 739.438965,168.097931 734.819092,171.808945 
	C734.270996,172.372650 734.117126,172.581116 734.026367,172.836166 
	C732.636169,173.227264 731.245972,173.618347 729.177734,174.017120 
	C728.296997,174.030106 728.094299,174.035385 727.891663,174.040680 
	C717.166016,172.313339 715.325684,164.148331 714.481201,154.061417 
	C711.553101,157.518677 708.948059,159.959015 707.113831,162.882919 
	C702.210510,170.699554 695.697021,176.723831 687.111877,179.825027 
	C678.477173,182.944061 662.883850,181.712616 659.705017,171.268799 
	C658.995178,168.936737 658.304810,166.598724 657.625488,164.330200 
	C654.417725,165.913635 651.441956,168.146545 648.138000,168.860214 
	C640.395996,170.532562 637.644043,163.393860 633.177917,159.383316 
	C632.125671,158.438339 631.426758,157.099915 630.538757,155.906967 
	C625.844604,162.588760 621.808289,169.321686 616.735901,175.153397 
	C614.045593,178.246368 609.556396,179.774643 605.189453,182.017029 
	C604.296997,182.030106 604.094299,182.035385 603.891663,182.040680 
	C598.028687,181.595230 594.549316,178.552032 593.040283,172.430038 
	C592.456726,170.062836 592.038696,167.654831 591.444946,164.779526 
	C585.616150,166.394577 583.344604,173.832169 576.181580,173.290878 
	C569.085205,172.754608 566.374878,167.351883 561.971008,162.668625 
	C559.287659,165.781631 556.654175,168.821075 554.040710,171.877701 
	C553.188782,172.874084 552.586731,174.235489 551.534058,174.884369 
	C544.327515,179.326660 543.219116,186.583878 541.931274,194.065903 
	C539.241028,209.693939 534.328003,224.630173 524.771667,237.488724 
	C521.882080,241.376785 517.324280,244.027618 513.518372,247.230606 
	C512.278564,248.274048 510.999908,249.271301 509.869507,250.644852 
	C504.977905,251.000000 499.955811,251.000000 494.466858,251.000000 
	C492.007477,247.074020 489.268646,243.339417 488.201080,239.176239 
	C486.681152,233.249023 489.239777,227.570816 492.747894,222.981827 
	C499.286621,214.428619 506.224213,206.141525 513.508911,198.215302 
	C516.701111,194.741989 517.557068,190.993454 518.194153,186.722504 
	C519.279053,179.449753 520.727417,172.231735 521.948059,164.978104 
	C522.095703,164.100906 521.779236,163.145615 521.531372,160.898300 
	C517.235352,165.602005 513.423828,169.186951 510.307556,173.298843 
	C501.408997,185.040466 480.332367,183.424942 470.992065,176.940231 
	C464.514038,172.442734 461.047180,166.061920 459.936951,158.127975 
	C457.519531,140.852417 458.928619,123.818069 464.179443,107.372757 
	C467.750397,96.188736 472.737000,85.379303 477.949707,74.826752 
	C480.943604,68.765923 485.104187,63.031044 489.768280,58.128048 
	C493.249176,54.468906 498.377502,52.376976 502.958862,49.277058 
	C509.785065,48.842831 516.424805,48.727825 523.063904,48.581619 
	C523.796631,48.565483 524.525330,48.370842 525.858032,48.509293 
	C533.305115,50.305458 540.661560,51.968586 542.909180,59.493732 
	C544.657043,65.345734 544.850159,71.846786 544.590942,78.011276 
	C544.502808,80.109207 541.088745,82.267830 538.869568,83.976807 
	C537.982910,84.659569 536.218628,84.202690 534.853882,84.264557 
	C535.000427,82.934341 534.812195,81.447090 535.349976,80.300278 
	C538.125916,74.380524 537.506958,68.900131 533.848572,63.562500 
	C530.664673,58.917160 524.277405,57.794403 519.723694,61.786156 
	C515.843689,65.187294 512.201965,68.988518 509.057037,73.076012 
	C499.707153,85.228043 496.073975,99.910339 492.174438,114.284492 
	C490.133026,121.809319 489.163391,129.879471 489.316559,137.671783 
	C489.462860,145.115402 491.271240,152.629700 493.192139,159.889862 
	C494.101349,163.326309 496.743225,166.443192 499.139679,169.243042 
	C499.692078,169.888397 503.303436,169.245316 504.076385,168.168320 
	C512.697388,156.156174 521.181335,144.085632 525.214050,129.463776 
	C526.242004,125.736488 528.672607,121.098854 531.794678,119.518150 
	C538.161804,116.294518 551.890381,124.352875 551.002686,131.939499 
	C550.086060,139.773788 549.183350,147.609726 548.291931,155.446915 
	C547.828003,159.525208 547.401611,163.607742 546.812927,169.026260 
	C548.941406,167.261078 549.835327,166.579437 550.662415,165.824661 
	C559.417664,157.834991 563.762329,147.074402 569.117065,136.886993 
	C574.812561,126.051140 582.026733,116.653618 594.926453,113.482384 
	C601.779236,111.797745 607.895081,114.058578 610.359985,119.836632 
	C612.092407,123.897568 610.894470,125.511162 606.667419,126.112282 
	C604.091003,126.478676 601.348694,127.505852 599.239014,129.015900 
	C589.135132,136.247925 583.552795,146.611893 580.190552,158.254013 
	C579.736572,159.826096 580.952209,161.880371 581.394775,163.711349 
	C582.916016,162.991379 584.783569,162.616776 585.901917,161.495117 
	C592.881775,154.494492 598.084229,146.401413 599.999939,136.533569 
	C600.773743,132.547577 603.234802,131.288376 606.831543,132.105972 
	C611.020325,133.058182 615.072266,140.169373 614.020874,144.421112 
	C613.510498,146.485046 612.728821,148.482483 612.230957,150.548828 
	C610.457275,157.909729 608.752747,165.287262 606.893555,173.205673 
	C608.529785,172.811707 609.347961,172.730042 610.070496,172.423218 
	C619.080078,168.597412 623.038452,160.135147 626.572144,152.230438 
	C631.015320,142.291687 633.809875,131.572372 636.802124,121.043877 
	C638.790649,114.047066 639.880188,106.794739 641.403076,99.508987 
	C636.440979,98.937225 632.255371,98.914917 628.329956,97.892899 
	C622.692688,96.425186 617.127563,94.496719 611.798218,92.157646 
	C610.446106,91.564194 610.102112,88.674004 609.303589,86.858803 
	C620.411133,88.349983 630.266479,89.801071 640.163696,90.860390 
	C641.608521,91.015038 644.109314,89.663597 644.650024,88.386230 
	C646.494141,84.029373 648.026001,79.469429 649.033508,74.846748 
	C650.389893,68.623932 651.148682,62.270855 652.338013,55.881989 
	C652.729248,55.628052 652.883057,55.419228 653.375732,55.102150 
	C659.381470,55.199932 664.645691,59.231857 665.806946,64.848579 
	C667.498108,73.028847 669.483276,81.267494 665.795654,89.509895 
	C665.082336,91.104401 664.919800,92.945381 664.424316,95.000000 
	C669.825134,95.000000 674.968933,94.893181 680.106567,95.025467 
	C687.503296,95.215919 694.266602,97.328934 700.117920,102.337997 
	C700.371826,102.729218 700.580688,102.883011 701.008789,103.302048 
	C701.733032,105.429176 702.284607,107.227753 702.661987,109.118027 
	C702.270752,109.371956 702.116943,109.580780 701.647095,109.897728 
	C700.503235,109.918228 699.738464,109.877190 698.882080,109.662003 
	C698.628174,109.270782 698.419312,109.116989 697.997925,108.707748 
	C687.013184,100.846123 674.605896,101.616470 662.666077,100.940681 
	C660.678833,110.609993 659.140747,119.653328 656.901550,128.519577 
	C654.937500,136.296341 652.052490,143.836304 649.858704,151.561630 
	C649.119690,154.163910 649.253662,157.014069 648.988586,159.750946 
	C649.537537,159.944885 650.086426,160.138824 650.635315,160.332764 
	C653.421448,156.956192 656.677063,153.858383 658.885498,150.138840 
	C662.349670,144.304276 665.107117,138.050140 668.338074,131.882004 
	C668.729431,131.628113 668.883179,131.419281 669.279907,131.009888 
	C672.294373,128.444382 675.730713,126.487091 677.572754,123.535019 
	C682.823425,115.120041 694.481140,116.389435 700.117188,120.820877 
	C707.098633,126.310066 707.479492,131.822449 702.068115,141.295914 
	C696.542786,150.968506 688.077576,157.920273 678.664429,163.532898 
	C675.486938,165.427505 675.528320,167.940567 676.263123,170.187653 
	C676.697388,171.515930 679.541992,172.978027 681.136902,172.809555 
	C684.285767,172.476898 687.494080,171.411942 690.368713,170.014160 
	C699.899658,165.379669 706.044067,157.312943 711.762695,148.698334 
	C717.072021,140.700317 715.257812,132.158829 714.142883,123.820267 
	C713.538025,119.296654 713.966187,113.705467 717.942810,111.850281 
	C721.716919,110.089577 725.943542,110.143837 729.574585,113.083809 
	C734.512329,117.081764 734.737610,122.870926 734.901428,128.360489 
	C735.232178,139.449448 734.999939,150.555222 734.999939,161.654053 
	C735.428223,161.959534 735.856506,162.265030 736.284790,162.570511 
	C738.596924,160.473541 740.792542,158.227341 743.246338,156.311920 
	C747.783691,152.770203 749.632324,148.460785 749.175110,142.564560 
	C748.894836,138.949814 749.887878,135.048691 751.091125,131.544724 
	C753.797852,123.662231 760.407776,120.962410 768.117920,124.337997 
	C768.371826,124.729218 768.580688,124.883011 768.916565,125.358536 
	C768.998047,128.107788 769.076843,130.475006 768.985596,132.835663 
	C768.692566,140.414749 768.244385,147.989227 768.063904,155.570419 
	C768.012634,157.722397 768.670959,159.891281 769.220032,163.455902 
	C771.628418,160.718246 772.917297,159.457520 773.971069,158.023987 
	C786.223694,141.356323 792.319702,122.677818 792.340515,101.885162 
	C792.734619,101.631477 792.890625,101.422386 792.984192,101.166656 
	C793.438171,101.119202 793.892090,101.071739 794.775269,101.270081 
	C795.367798,101.733452 795.578003,101.886856 796.005981,102.301537 
	C797.119446,104.645393 798.081482,106.654984 799.001038,108.683823 
	C802.432312,116.253990 800.680969,123.623177 797.757446,131.014801 
	C794.283142,137.085556 791.162415,143.098465 788.041687,149.111359 
M681.437134,153.064285 
	C681.022400,153.638672 680.556274,154.187546 680.245483,154.813507 
	C680.195923,154.913300 680.843628,155.359283 681.168945,155.645248 
	C681.778442,154.818558 682.388000,153.991867 683.686707,153.013306 
	C690.311646,147.713623 696.838501,142.340958 698.224365,133.110886 
	C691.009766,138.215179 685.855103,145.003403 681.437134,153.064285 
M509.531433,223.955872 
	C511.101196,218.793701 512.670898,213.631531 514.240662,208.469360 
	C513.600891,208.087723 512.961060,207.706085 512.321289,207.324448 
	C509.931854,209.998901 507.138092,212.416840 505.242493,215.404633 
	C501.948059,220.597198 499.065277,226.071396 496.350708,231.595016 
	C495.769318,232.778107 496.120148,235.196381 497.005402,236.080215 
	C497.729004,236.802643 500.641754,236.695526 501.282379,235.903473 
	C504.153961,232.352814 506.560120,228.425735 509.531433,223.955872 
z"/>
<path fill="#000000" opacity="1.000000" stroke="none" 
	d="
M668.163879,131.973709 
	C665.107117,138.050140 662.349670,144.304276 658.885498,150.138840 
	C656.677063,153.858383 653.421448,156.956192 650.635315,160.332764 
	C650.086426,160.138824 649.537537,159.944885 648.988586,159.750946 
	C649.253662,157.014069 649.119690,154.163910 649.858704,151.561630 
	C652.052490,143.836304 654.937500,136.296341 656.901550,128.519577 
	C659.140747,119.653328 660.678833,110.609993 662.666077,100.940681 
	C674.605896,101.616470 687.013184,100.846123 697.996155,108.945908 
	C698.160278,109.502808 698.497375,109.839462 698.497375,109.839462 
	C698.497375,109.839462 698.973755,109.836151 698.973755,109.836151 
	C699.738464,109.877190 700.503235,109.918228 701.885315,109.899521 
	C702.840454,109.661545 702.951599,109.390404 702.836121,109.026337 
	C702.284607,107.227753 701.733032,105.429176 701.010620,103.063889 
	C700.661438,102.159431 700.390259,102.048317 700.026245,102.163849 
	C694.266602,97.328934 687.503296,95.215919 680.106567,95.025467 
	C674.968933,94.893181 669.825134,95.000000 664.424316,95.000000 
	C664.919800,92.945381 665.082336,91.104401 665.795654,89.509895 
	C669.483276,81.267494 667.498108,73.028847 665.806946,64.848579 
	C664.645691,59.231857 659.381470,55.199932 653.137573,55.100349 
	C652.159546,55.338467 652.048401,55.609615 652.163879,55.973679 
	C651.148682,62.270855 650.389893,68.623932 649.033508,74.846748 
	C648.026001,79.469429 646.494141,84.029373 644.650024,88.386230 
	C644.109314,89.663597 641.608521,91.015038 640.163696,90.860390 
	C630.266479,89.801071 620.411133,88.349983 609.303589,86.858803 
	C610.102112,88.674004 610.446106,91.564194 611.798218,92.157646 
	C617.127563,94.496719 622.692688,96.425186 628.329956,97.892899 
	C632.255371,98.914917 636.440979,98.937225 641.403076,99.508987 
	C639.880188,106.794739 638.790649,114.047066 636.802124,121.043877 
	C633.809875,131.572372 631.015320,142.291687 626.572144,152.230438 
	C623.038452,160.135147 619.080078,168.597412 610.070496,172.423218 
	C609.347961,172.730042 608.529785,172.811707 606.893555,173.205673 
	C608.752747,165.287262 610.457275,157.909729 612.230957,150.548828 
	C612.728821,148.482483 613.510498,146.485046 614.020874,144.421112 
	C615.072266,140.169373 611.020325,133.058182 606.831543,132.105972 
	C603.234802,131.288376 600.773743,132.547577 599.999939,136.533569 
	C598.084229,146.401413 592.881775,154.494492 585.901917,161.495117 
	C584.783569,162.616776 582.916016,162.991379 581.394775,163.711349 
	C580.952209,161.880371 579.736572,159.826096 580.190552,158.254013 
	C583.552795,146.611893 589.135132,136.247925 599.239014,129.015900 
	C601.348694,127.505852 604.091003,126.478676 606.667419,126.112282 
	C610.894470,125.511162 612.092407,123.897568 610.359985,119.836632 
	C607.895081,114.058578 601.779236,111.797745 594.926453,113.482384 
	C582.026733,116.653618 574.812561,126.051140 569.117065,136.886993 
	C563.762329,147.074402 559.417664,157.834991 550.662415,165.824661 
	C549.835327,166.579437 548.941406,167.261078 546.812927,169.026260 
	C547.401611,163.607742 547.828003,159.525208 548.291931,155.446915 
	C549.183350,147.609726 550.086060,139.773788 551.002686,131.939499 
	C551.890381,124.352875 538.161804,116.294518 531.794678,119.518150 
	C528.672607,121.098854 526.242004,125.736488 525.214050,129.463776 
	C521.181335,144.085632 512.697388,156.156174 504.076385,168.168320 
	C503.303436,169.245316 499.692078,169.888397 499.139679,169.243042 
	C496.743225,166.443192 494.101349,163.326309 493.192139,159.889862 
	C491.271240,152.629700 489.462860,145.115402 489.316559,137.671783 
	C489.163391,129.879471 490.133026,121.809319 492.174438,114.284492 
	C496.073975,99.910339 499.707153,85.228043 509.057037,73.076012 
	C512.201965,68.988518 515.843689,65.187294 519.723694,61.786156 
	C524.277405,57.794403 530.664673,58.917160 533.848572,63.562500 
	C537.506958,68.900131 538.125916,74.380524 535.349976,80.300278 
	C534.812195,81.447090 535.000427,82.934341 534.853882,84.264557 
	C536.218628,84.202690 537.982910,84.659569 538.869568,83.976807 
	C541.088745,82.267830 544.502808,80.109207 544.590942,78.011276 
	C544.850159,71.846786 544.657043,65.345734 542.909180,59.493732 
	C540.661560,51.968586 533.305115,50.305458 526.243286,48.459579 
	C536.673096,48.106377 547.319763,48.009991 557.966370,48.007195 
	C615.712463,47.992035 673.458496,48.000000 731.204590,48.000000 
	C732.994873,48.000000 734.785156,48.000000 736.942871,48.000000 
	C736.942871,65.747292 736.942871,83.136887 736.942871,101.011505 
	C755.228210,101.011505 773.144348,101.011505 791.546387,101.295227 
	C792.032349,101.578941 792.164978,101.976402 792.164978,101.976402 
	C792.319702,122.677818 786.223694,141.356323 773.971069,158.023987 
	C772.917297,159.457520 771.628418,160.718246 769.220032,163.455902 
	C768.670959,159.891281 768.012634,157.722397 768.063904,155.570419 
	C768.244385,147.989227 768.692566,140.414749 768.985596,132.835663 
	C769.076843,130.475006 768.998047,128.107788 768.918335,125.120377 
	C768.661438,124.159431 768.390259,124.048317 768.026245,124.163849 
	C760.407776,120.962410 753.797852,123.662231 751.091125,131.544724 
	C749.887878,135.048691 748.894836,138.949814 749.175110,142.564560 
	C749.632324,148.460785 747.783691,152.770203 743.246338,156.311920 
	C740.792542,158.227341 738.596924,160.473541 736.284790,162.570511 
	C735.856506,162.265030 735.428223,161.959534 734.999939,161.654053 
	C734.999939,150.555222 735.232178,139.449448 734.901428,128.360489 
	C734.737610,122.870926 734.512329,117.081764 729.574585,113.083809 
	C725.943542,110.143837 721.716919,110.089577 717.942810,111.850281 
	C713.966187,113.705467 713.538025,119.296654 714.142883,123.820267 
	C715.257812,132.158829 717.072021,140.700317 711.762695,148.698334 
	C706.044067,157.312943 699.899658,165.379669 690.368713,170.014160 
	C687.494080,171.411942 684.285767,172.476898 681.136902,172.809555 
	C679.541992,172.978027 676.697388,171.515930 676.263123,170.187653 
	C675.528320,167.940567 675.486938,165.427505 678.664429,163.532898 
	C688.077576,157.920273 696.542786,150.968506 702.068115,141.295914 
	C707.479492,131.822449 707.098633,126.310066 700.117188,120.820877 
	C694.481140,116.389435 682.823425,115.120041 677.572754,123.535019 
	C675.730713,126.487091 672.294373,128.444382 669.041687,131.008087 
	C668.159485,131.338470 668.048340,131.609634 668.163879,131.973709 
z"/>
<path fill="#08609F" opacity="1.000000" stroke="none" 
	d="
M859.891663,228.040680 
	C857.894165,228.023010 855.878113,228.173019 853.902832,227.954544 
	C849.022522,227.414841 845.715515,223.807083 845.041443,218.273697 
	C842.906067,200.743118 851.928894,186.849396 865.615967,179.219452 
	C868.835022,177.425018 872.522705,176.471451 876.956238,174.759857 
	C877.235107,173.394638 877.735413,170.945160 878.235779,168.495682 
	C877.955933,168.205383 877.676147,167.915100 877.396362,167.624802 
	C873.202881,171.855728 868.310852,173.538666 862.996521,171.302475 
	C857.402771,168.948746 856.474976,163.732574 856.935303,157.456604 
	C852.303772,163.643265 848.324890,168.928146 844.378479,174.237137 
	C839.407410,180.924500 833.464294,183.898483 827.852722,181.837692 
	C821.100952,179.358109 819.942627,173.180588 819.005981,167.039581 
	C818.866760,166.126862 818.799561,165.203156 818.621216,163.573120 
	C815.241699,166.391479 812.304504,168.668823 809.567688,171.165756 
	C805.922913,174.491074 801.730713,173.969971 798.228088,171.891449 
	C794.206177,169.504807 790.107300,166.494705 790.014404,160.905930 
	C789.953552,157.244812 790.025513,153.581497 790.437866,149.388367 
	C793.878418,142.867142 796.919067,136.876724 800.105225,130.579163 
	C805.136169,121.442093 812.657715,116.027733 822.262085,113.347328 
	C828.722107,111.544456 835.486023,114.563080 837.577332,120.125061 
	C838.998596,123.905014 837.747070,125.577240 833.809326,126.085625 
	C831.526917,126.380295 829.084167,127.142197 827.200012,128.414291 
	C824.352478,130.336838 821.195251,132.438934 819.468811,135.259842 
	C814.964294,142.620392 811.010498,150.337387 807.232544,158.104599 
	C806.578064,159.450211 807.859375,161.737427 808.246582,163.589706 
	C809.769958,162.955719 811.669617,162.701630 812.755615,161.626068 
	C819.775879,154.673050 824.819092,146.534454 827.031921,136.765747 
	C828.276306,131.272293 832.060120,130.410675 836.477966,133.861282 
	C841.731262,137.964386 842.266235,142.406815 840.158997,148.523697 
	C837.478455,156.304825 835.927124,164.474976 833.722229,173.131821 
	C835.474854,172.723495 836.428955,172.653580 837.250305,172.286484 
	C846.297974,168.242844 850.227844,159.722626 853.739075,151.565552 
	C856.865479,144.302429 858.273987,136.229721 859.859985,128.396729 
	C861.042542,122.556526 861.298706,116.528763 861.987061,110.410851 
	C869.085144,109.243332 875.973877,113.137863 877.059937,120.681625 
	C877.932251,126.740311 877.579895,133.136856 876.731506,139.238983 
	C875.768311,146.167648 873.624084,152.930008 872.072327,159.782593 
	C871.929626,160.412979 872.360046,161.173157 872.615723,162.262238 
	C873.596924,161.571121 874.232178,161.303177 874.611816,160.830109 
	C884.288147,148.771866 892.216431,135.908005 894.169373,120.082184 
	C894.350525,118.613960 896.764954,117.421310 898.142395,116.100685 
	C900.750244,118.910431 905.250977,121.508934 905.592773,124.571602 
	C906.445190,132.209778 906.292786,140.222137 904.900940,147.781845 
	C903.192688,157.060120 899.814209,166.030899 897.378662,174.377808 
	C902.406006,177.737549 907.214783,180.951248 912.114868,184.340439 
	C912.368408,184.734650 912.577515,184.890640 912.833435,184.983932 
	C920.386230,195.145142 922.882507,205.695175 915.481079,217.121094 
	C914.455994,218.703552 913.911499,220.597290 912.814331,222.775742 
	C912.266479,223.367828 912.113037,223.577988 911.702637,223.996201 
	C907.261414,226.717926 903.141479,229.278519 899.021545,231.839111 
	C897.941284,231.885544 896.861084,231.931976 895.288147,231.731323 
	C894.632202,231.266525 894.421997,231.113068 894.164917,231.023865 
	C893.798828,229.909668 893.432739,228.795456 893.289307,227.235229 
	C893.729004,226.627350 893.882874,226.418884 893.973633,226.163834 
	C907.183899,226.943497 914.229980,215.074799 913.076538,202.887115 
	C912.171204,193.320877 903.308533,184.742706 894.667786,185.112976 
	C888.989563,195.643982 884.136414,206.279861 877.733093,215.881927 
	C874.132080,221.281784 870.178040,227.942154 861.201416,228.017273 
	C860.296997,228.030106 860.094299,228.035385 859.891663,228.040680 
M862.008850,213.419693 
	C866.433899,203.530624 870.858948,193.641571 875.320068,183.671967 
	C874.159241,183.280579 873.825378,183.037720 873.557739,183.096481 
	C860.691223,185.920425 849.047180,204.498398 852.276245,217.293686 
	C852.701660,218.979218 854.236206,220.384827 855.257019,221.920059 
	C856.820923,220.676682 858.563049,219.595169 859.889038,218.135605 
	C860.847168,217.081070 861.252258,215.524155 862.008850,213.419693 
z"/>
<path fill="#000000" opacity="1.000000" stroke="none" 
	d="
M912.023560,184.164932 
	C907.214783,180.951248 902.406006,177.737549 897.378662,174.377808 
	C899.814209,166.030899 903.192688,157.060120 904.900940,147.781845 
	C906.292786,140.222137 906.445190,132.209778 905.592773,124.571602 
	C905.250977,121.508934 900.750244,118.910431 898.142395,116.100685 
	C896.764954,117.421310 894.350525,118.613960 894.169373,120.082184 
	C892.216431,135.908005 884.288147,148.771866 874.611816,160.830109 
	C874.232178,161.303177 873.596924,161.571121 872.615723,162.262238 
	C872.360046,161.173157 871.929626,160.412979 872.072327,159.782593 
	C873.624084,152.930008 875.768311,146.167648 876.731506,139.238983 
	C877.579895,133.136856 877.932251,126.740311 877.059937,120.681625 
	C875.973877,113.137863 869.085144,109.243332 861.987061,110.410851 
	C861.298706,116.528763 861.042542,122.556526 859.859985,128.396729 
	C858.273987,136.229721 856.865479,144.302429 853.739075,151.565552 
	C850.227844,159.722626 846.297974,168.242844 837.250305,172.286484 
	C836.428955,172.653580 835.474854,172.723495 833.722229,173.131821 
	C835.927124,164.474976 837.478455,156.304825 840.158997,148.523697 
	C842.266235,142.406815 841.731262,137.964386 836.477966,133.861282 
	C832.060120,130.410675 828.276306,131.272293 827.031921,136.765747 
	C824.819092,146.534454 819.775879,154.673050 812.755615,161.626068 
	C811.669617,162.701630 809.769958,162.955719 808.246582,163.589706 
	C807.859375,161.737427 806.578064,159.450211 807.232544,158.104599 
	C811.010498,150.337387 814.964294,142.620392 819.468811,135.259842 
	C821.195251,132.438934 824.352478,130.336838 827.200012,128.414291 
	C829.084167,127.142197 831.526917,126.380295 833.809326,126.085625 
	C837.747070,125.577240 838.998596,123.905014 837.577332,120.125061 
	C835.486023,114.563080 828.722107,111.544456 822.262085,113.347328 
	C812.657715,116.027733 805.136169,121.442093 799.798950,130.622162 
	C798.935120,130.967178 798.523132,130.962067 798.111084,130.956955 
	C800.680969,123.623177 802.432312,116.253990 799.001038,108.683823 
	C798.081482,106.654984 797.119446,104.645393 796.072388,102.102966 
	C795.967957,101.578972 796.014893,101.162796 796.014893,101.162796 
	C834.588867,101.118645 873.162903,101.073715 911.736877,101.045219 
	C912.023865,101.045006 912.310974,101.269562 912.988525,101.551895 
	C912.988525,128.612778 912.988525,155.836670 912.704773,183.546463 
	C912.421021,184.032364 912.023560,184.164932 912.023560,184.164932 
z"/>
<path fill="#3F95D1" opacity="1.000000" stroke="none" 
	d="
M115.594849,29.089798 
	C125.223442,32.653419 129.158310,40.164742 129.840256,49.170071 
	C130.519882,58.144806 130.645187,67.295441 126.649040,75.838638 
	C126.266190,76.657097 126.343353,77.695648 126.231171,78.634918 
	C125.823082,82.051857 126.516960,86.200706 124.812881,88.746681 
	C120.242844,95.574524 121.780411,103.630043 119.136063,110.805252 
	C115.678642,120.186646 112.944328,129.854782 110.326172,139.515350 
	C109.265358,143.429596 109.630363,147.710419 108.810287,151.714600 
	C107.707291,157.100204 106.251106,162.430252 104.640648,167.690506 
	C102.951439,173.208008 100.900673,178.614807 99.016464,184.457855 
	C89.630371,184.846344 82.952881,177.425690 85.070488,168.440659 
	C88.689056,153.087006 88.923409,137.198410 93.631409,121.942146 
	C96.571129,112.416008 96.639191,102.003685 98.346420,91.349052 
	C99.207535,85.650887 99.512665,80.561600 100.272881,75.541222 
	C101.710327,66.048447 103.299606,56.575073 105.039131,47.132946 
	C106.150185,41.102119 107.644218,35.141853 108.966553,29.149950 
	C111.030510,29.109367 113.094460,29.068785 115.594849,29.089798 
z"/>
<path fill="#000000" opacity="1.000000" stroke="none" 
	d="
M108.506943,29.080441 
	C107.644218,35.141853 106.150185,41.102119 105.039131,47.132946 
	C103.299606,56.575073 101.710327,66.048447 100.272881,75.541222 
	C99.512665,80.561600 99.207535,85.650887 98.338013,90.933983 
	C97.656464,90.650085 97.052963,90.141945 97.051750,89.632355 
	C97.004105,69.588837 97.011246,49.545189 97.011246,29.010929 
	C100.861862,29.010929 104.454597,29.010929 108.506943,29.080441 
z"/>
<path fill="#000000" opacity="1.000000" stroke="none" 
	d="
M899.482788,231.913727 
	C903.141479,229.278519 907.261414,226.717926 911.901245,224.062622 
	C912.421082,223.967926 912.837219,224.014969 912.837219,224.014969 
	C912.837219,226.457413 912.837219,228.899841 912.837219,231.988342 
	C908.616150,231.988342 904.280090,231.988342 899.482788,231.913727 
z"/>
<path fill="#08609F" opacity="1.000000" stroke="none" 
	d="
M894.098755,231.222504 
	C894.421997,231.113068 894.632202,231.266525 894.888062,231.658783 
	C894.814758,231.875885 894.648865,231.918427 894.234070,231.899078 
	C893.985107,231.837204 894.032471,231.421127 894.098755,231.222504 
z"/>
<path fill="#08609F" opacity="1.000000" stroke="none" 
	d="
M912.899109,223.765930 
	C912.837219,224.014969 912.421082,223.967926 912.222473,223.901489 
	C912.113037,223.577988 912.266479,223.367828 912.658813,223.112152 
	C912.875977,223.185471 912.918457,223.351181 912.899109,223.765930 
z"/>
<path fill="#08609F" opacity="1.000000" stroke="none" 
	d="
M792.340515,101.885162 
	C792.164978,101.976402 792.032349,101.578941 792.008728,101.370880 
	C792.151794,101.121666 792.318420,101.080513 792.734619,101.103012 
	C792.890625,101.422386 792.734619,101.631477 792.340515,101.885162 
z"/>
<path fill="#08609F" opacity="1.000000" stroke="none" 
	d="
M795.765808,101.100952 
	C796.014893,101.162796 795.967957,101.578972 795.901489,101.777542 
	C795.578003,101.886856 795.367798,101.733452 795.112061,101.341263 
	C795.185242,101.124146 795.351013,101.081635 795.765808,101.100952 
z"/>
<path fill="#08609F" opacity="1.000000" stroke="none" 
	d="
M912.114868,184.340439 
	C912.023560,184.164932 912.421021,184.032364 912.629150,184.008759 
	C912.878418,184.151779 912.919556,184.318405 912.897095,184.734482 
	C912.577515,184.890640 912.368408,184.734650 912.114868,184.340439 
z"/>
<path fill="#3F95D1" opacity="1.000000" stroke="none" 
	d="
M279.174133,125.830872 
	C279.142822,125.630684 279.111542,125.430504 279.570068,125.039429 
	C280.520203,124.554016 280.980591,124.259499 281.440948,123.964981 
	C281.018677,123.586937 280.596405,123.208900 280.174133,122.830864 
	C280.142822,122.630684 280.111542,122.430504 280.570068,122.039429 
	C281.520203,121.554008 281.980591,121.259491 282.440948,120.964981 
	C282.018677,120.586937 281.596405,120.208900 281.174133,119.830864 
	C281.142822,119.630684 281.111542,119.430504 281.570068,119.039429 
	C282.520203,118.554024 282.980591,118.259506 283.440948,117.964981 
	C283.018677,117.586937 282.596405,117.208900 282.174133,116.830864 
	C282.142822,116.630684 282.111542,116.430504 282.570068,116.039429 
	C283.520203,115.554016 283.980591,115.259499 284.440948,114.964981 
	C284.018677,114.586937 283.596405,114.208900 283.174133,113.830864 
	C283.148468,113.615273 283.122772,113.399681 283.661926,113.030853 
	C287.189301,111.904251 290.151825,110.930893 293.114380,109.957527 
	C294.672852,111.806114 296.583008,113.467438 297.694275,115.554176 
	C298.886383,117.792610 299.327271,120.431084 300.288025,123.510559 
	C304.532623,119.868034 308.458008,116.728844 312.107422,113.296265 
	C315.114990,110.467407 318.713379,108.209824 322.113403,110.947723 
	C324.831848,113.136772 326.251770,117.057121 327.931885,120.369400 
	C328.843994,122.167526 329.281494,124.272507 329.585968,126.291420 
	C329.820404,127.845848 329.877014,129.603729 329.388580,131.062103 
	C326.038971,141.063156 322.518005,151.006744 319.086426,160.980621 
	C318.940521,161.404755 319.131592,161.944839 319.225952,163.290405 
	C321.697479,161.909836 324.392242,161.196869 325.830841,159.449646 
	C329.843536,154.576019 334.085632,149.647919 336.873169,144.060822 
	C342.248627,133.286591 348.807312,123.772110 360.017822,118.706444 
	C363.603058,117.086388 368.072296,117.422531 372.633270,116.795403 
	C374.306885,106.313782 376.148651,94.751152 378.001678,83.190323 
	C378.597687,79.472038 378.553619,75.728073 381.875641,72.742416 
	C383.631348,71.164497 383.966461,68.061813 385.105713,65.726952 
	C386.332581,63.212555 387.620605,59.973778 391.102020,61.162960 
	C393.355103,61.932564 395.663330,63.901299 396.920563,65.959572 
	C400.135040,71.222343 398.508209,76.986023 397.726349,82.628738 
	C396.402527,92.182877 394.328247,101.746994 394.206390,111.327744 
	C394.009979,126.770782 391.336151,141.485703 386.249512,156.031815 
	C384.333282,161.511642 384.685486,167.784698 384.003601,173.696152 
	C384.511810,173.978943 385.020020,174.261719 385.528229,174.544495 
	C389.364655,169.626450 393.696045,165.009705 396.917786,159.717468 
	C401.390289,152.370621 404.939545,144.467056 409.092407,136.916428 
	C410.081268,135.118515 411.896149,133.774887 413.331085,132.222290 
	C413.952423,132.591415 414.573792,132.960541 415.195160,133.329651 
	C413.951630,138.237320 413.527802,143.562210 411.287842,147.962646 
	C407.090210,156.208984 402.063385,164.067963 396.928864,171.787003 
	C394.602631,175.284149 391.439423,178.348602 388.219452,181.098160 
	C383.373077,185.236526 373.247345,182.947678 370.075653,177.159454 
	C368.076935,173.511871 366.442444,169.664719 364.533936,165.675934 
	C358.216034,169.933807 357.456512,180.342957 346.699036,178.571411 
	C337.234039,177.012711 333.621460,171.156815 331.501953,162.563263 
	C328.897736,164.270874 326.447998,165.555832 324.381470,167.295914 
	C319.317596,171.559891 313.925690,170.758774 308.747925,168.153946 
	C303.955231,165.742859 302.405396,160.897568 302.056702,155.921280 
	C301.313446,145.315399 304.009125,135.520935 309.750793,126.557190 
	C310.324738,125.661171 310.600037,124.573891 310.247406,122.703247 
	C308.901794,123.567932 307.108307,124.128548 306.281921,125.345741 
	C300.048920,134.526337 294.654968,144.127838 291.968597,155.053757 
	C290.851807,159.595978 289.439026,164.077423 287.881256,168.487762 
	C287.612549,169.248489 285.941010,169.513718 284.157776,169.876801 
	C282.202362,170.106003 281.006622,170.466187 279.810913,170.826385 
	C278.211334,168.828812 276.611755,166.831238 274.965454,164.111130 
	C274.100616,160.356308 273.282501,157.324020 272.464386,154.291718 
	C272.464386,154.291718 272.185547,154.027618 272.622681,153.938049 
	C273.520203,153.553970 273.980560,153.259445 274.440948,152.964935 
	C274.018677,152.586899 273.596405,152.208862 273.174133,151.830826 
	C273.145355,151.620346 273.116608,151.409866 273.628601,151.037445 
	C275.049255,150.389008 275.929169,149.902496 276.809082,149.416016 
	C275.931580,148.564270 275.054047,147.712509 274.176544,146.860748 
	C274.149506,146.642197 274.122467,146.423660 274.669556,146.041260 
	C276.156891,145.039459 277.970001,143.937881 277.816071,143.412521 
	C277.337402,141.778381 276.112854,140.362778 275.177612,138.862396 
	C275.146881,138.649139 275.116180,138.435883 275.535400,138.037354 
	C276.510071,137.590317 277.034882,137.328583 277.559662,137.066864 
	C277.095306,136.711761 276.630951,136.356644 276.166626,136.001526 
	C276.404572,135.204086 276.642548,134.406677 277.405975,133.303345 
	C278.876068,132.589020 279.820709,132.180603 280.765320,131.772186 
	C279.902191,130.799850 279.039032,129.827515 278.175903,128.855194 
	C278.144012,128.651077 278.112091,128.446976 278.570007,128.045685 
	C279.520203,127.554001 279.980560,127.259499 280.440948,126.964996 
	C280.018677,126.586952 279.596405,126.208908 279.174133,125.830872 
M371.425018,131.144913 
	C370.044769,131.835220 368.148132,132.162094 367.365967,133.273361 
	C361.113342,142.156769 354.880249,151.069260 349.134918,160.280792 
	C348.051270,162.018250 348.768555,165.232910 349.389282,167.570938 
	C349.914795,169.550156 350.619080,171.775345 353.472992,168.315613 
	C362.423340,157.465210 368.698425,145.439301 371.425018,131.144913 
z"/>
<path fill="#3F95D1" opacity="1.000000" stroke="none" 
	d="
M210.166641,148.002380 
	C211.866608,144.100433 213.566574,140.198486 215.955383,136.132019 
	C217.258194,135.601212 217.872147,135.234924 218.486099,134.868622 
	C218.031570,134.454361 217.577026,134.040100 217.122482,133.625839 
	C217.204178,133.477280 217.285873,133.328720 217.990036,133.083420 
	C219.236893,132.619125 219.861267,132.251572 220.485641,131.884018 
	C220.031204,131.464737 219.576767,131.045456 219.122345,130.626175 
	C219.204041,130.477524 219.285736,130.328873 220.023407,130.088745 
	C221.672485,129.692795 222.665588,129.388306 223.658676,129.083817 
	C223.147995,128.261139 222.637314,127.438454 222.126648,126.615761 
	C223.118607,124.897865 224.110565,123.179970 225.606812,121.712433 
	C226.793015,122.152771 227.474945,122.342758 228.156860,122.532745 
	C228.194901,121.691299 228.232925,120.849846 228.270935,120.008400 
	C228.911545,119.457947 229.552170,118.907501 230.651947,118.659920 
	C231.793015,119.152771 232.474945,119.342758 233.156860,119.532745 
	C233.194885,118.691299 233.232910,117.849846 233.270935,117.008400 
	C233.395859,116.739891 233.603638,116.577003 234.560135,116.676910 
	C240.796173,116.326530 246.366348,115.818970 251.936539,115.311401 
	C253.622849,117.683487 255.539810,119.940178 256.826538,122.512184 
	C257.132141,123.123093 255.226715,125.872963 254.507812,125.806480 
	C245.762985,124.997711 241.176697,131.474503 237.049210,136.913269 
	C232.435242,142.993057 229.603745,150.472198 226.364670,157.511734 
	C225.666595,159.028870 226.541306,161.269653 226.913239,163.898438 
	C228.437469,166.117950 229.739990,167.616150 231.042511,169.114349 
	C228.972717,170.411362 226.902939,171.708389 224.166473,173.012268 
	C223.296005,173.026749 223.092239,173.034363 222.888474,173.041962 
	C214.939896,173.612854 212.067444,167.409210 208.122787,162.011124 
	C202.607025,164.630951 196.251068,169.500626 190.530899,164.426559 
	C186.071396,160.470779 183.762009,154.091095 180.949173,149.522751 
	C175.504364,152.099945 169.110779,154.992630 162.884689,158.209518 
	C161.889511,158.723694 161.531006,160.651367 161.071365,161.991821 
	C157.734085,171.724426 148.046906,176.687729 138.237259,173.632141 
	C135.464890,172.768570 132.512054,172.234985 129.978012,170.908234 
	C124.924789,168.262512 124.348930,164.273712 128.030563,160.002335 
	C129.425858,158.383545 130.886765,156.821335 132.919952,155.461563 
	C137.334351,155.577133 141.150146,155.508636 144.946823,155.202896 
	C145.111954,155.189606 145.101608,152.997208 145.173004,151.819885 
	C145.146866,151.606369 145.120743,151.392868 145.639496,151.027466 
	C152.655289,149.621613 146.376846,147.213547 146.679947,145.401245 
	C146.484772,144.068893 146.289597,142.736526 146.667938,141.140686 
	C150.917328,141.094391 150.137360,138.340363 149.854996,136.466461 
	C149.416748,133.558044 148.602264,130.678558 147.636795,127.894508 
	C147.352936,127.075996 146.019226,126.621574 145.166641,126.000298 
	C144.805237,124.179672 144.234100,122.865135 142.932465,125.474815 
	C141.352509,128.642532 140.207733,132.068771 138.305786,135.016052 
	C137.423386,136.383453 135.196045,136.882935 133.578430,137.775879 
	C133.415604,136.059006 132.647476,134.107529 133.204712,132.669739 
	C134.803024,128.545761 136.938187,124.629852 139.403168,120.314209 
	C142.886658,120.255325 143.302597,118.487991 142.882935,116.204071 
	C142.257584,112.800690 141.815414,109.323967 140.753387,106.054482 
	C140.046326,103.877731 138.395218,102.007637 137.166641,100.000290 
	C138.201904,98.096588 139.237183,96.192894 140.973694,94.135185 
	C145.448975,92.043007 149.223038,90.104836 152.997086,88.166656 
	C153.475891,88.739304 153.909119,89.358818 154.441483,89.876381 
	C156.576401,91.951950 160.767166,94.320709 160.499771,95.987991 
	C159.818253,100.237350 157.160721,104.172798 155.264297,108.219978 
	C155.060974,108.653885 154.662476,108.996330 153.897079,109.952888 
	C157.764618,117.938843 162.183777,125.997604 165.573914,134.468185 
	C167.572128,139.460983 168.252899,145.115234 164.989502,151.108246 
	C171.503922,149.942642 175.045761,145.486267 178.846039,141.439377 
	C183.057693,136.954422 183.037460,131.036438 183.939529,125.527695 
	C186.415466,110.407410 188.673538,95.250565 190.907776,80.091965 
	C192.050293,72.340210 192.912170,64.547363 194.008041,56.788235 
	C194.229019,55.223690 194.933105,53.727383 195.435486,52.132870 
	C201.035660,51.503536 205.094757,53.545628 208.056458,58.154530 
	C210.410004,61.817039 213.183853,65.223907 215.341675,68.990288 
	C216.146225,70.394592 216.189804,72.604485 215.798676,74.262634 
	C213.679764,83.245064 210.095306,92.073326 209.379135,101.141350 
	C208.659500,110.253502 206.165161,119.016617 205.453537,127.866890 
	C204.673721,137.564941 201.345505,146.817398 202.090515,156.866165 
	C205.575562,156.539673 206.954666,153.261047 209.331329,150.311920 
	C210.402359,149.641296 211.003433,149.292404 211.604523,148.943512 
	C211.125229,148.629807 210.645935,148.316086 210.166641,148.002380 
M141.280746,159.113556 
	C137.946884,160.769638 133.040192,160.297714 131.744827,166.170578 
	C136.771500,165.491302 140.657852,164.636017 141.280746,159.113556 
z"/>
<path fill="#3F95D1" opacity="1.000000" stroke="none" 
	d="
M231.350479,168.973877 
	C229.739990,167.616150 228.437469,166.117950 227.087982,164.251862 
	C229.785538,161.998108 232.530045,160.112274 235.968811,158.103241 
	C240.341446,158.249969 240.376587,156.480560 238.950623,153.893295 
	C239.081345,153.327621 239.212067,152.761948 239.993500,152.081879 
	C241.258179,151.601196 241.872131,151.234909 242.486099,150.868622 
	C242.031570,150.454361 241.577026,150.040100 241.122482,149.625839 
	C241.701126,148.629593 242.279770,147.633347 243.366440,146.309158 
	C244.424225,145.607040 244.973999,145.232880 245.523773,144.858734 
	C245.073578,144.510117 244.623383,144.161514 244.173172,143.812912 
	C244.142242,143.615631 244.111328,143.418365 244.570114,143.034790 
	C245.520218,142.554001 245.980591,142.259476 246.440979,141.964966 
	C246.018692,141.586914 245.596390,141.208878 245.174103,140.830826 
	C245.146042,140.616837 245.117966,140.402847 245.594452,140.028778 
	C246.940002,139.568634 247.780975,139.268585 248.621964,138.968536 
	C247.803528,138.312469 246.985077,137.656403 246.166641,137.000336 
	C246.219482,136.407288 246.272324,135.814224 247.066406,135.102173 
	C250.576553,134.974625 253.345474,134.966080 256.114380,134.957550 
	C261.130402,137.908188 261.145081,142.001984 259.570465,147.085602 
	C257.000519,155.382645 255.039154,163.868195 252.520645,173.412552 
	C254.971008,172.560623 256.508942,172.025909 258.628662,171.774963 
	C260.771881,172.484329 262.333344,172.909912 263.894775,173.335480 
	C261.306854,178.185333 257.509308,181.359970 251.193054,182.012878 
	C250.296005,182.026749 250.092239,182.034363 249.888474,182.041962 
	C245.772781,182.261780 242.883453,180.398895 241.107819,176.150467 
	C241.104950,172.749588 241.215576,169.976883 240.779770,167.292923 
	C240.636505,166.410553 239.077988,165.757996 238.166641,165.000351 
	C235.900009,164.601730 235.900009,164.601730 231.350479,168.973877 
z"/>
<path fill="#3F95D1" opacity="1.000000" stroke="none" 
	d="
M264.151276,173.181885 
	C262.333344,172.909912 260.771881,172.484329 258.994690,171.617310 
	C262.220734,166.976181 265.680115,162.790649 269.093536,158.568008 
	C270.100647,157.322159 270.978088,155.971481 272.189667,154.480286 
	C273.282501,157.324020 274.100616,160.356308 274.938629,163.752075 
	C273.914886,164.082825 272.871246,164.050095 271.256714,163.814453 
	C269.827179,165.089844 268.968567,166.568146 268.109924,168.046448 
	C266.875854,169.707062 265.641815,171.367676 264.151276,173.181885 
z"/>
<path fill="#3F95D1" opacity="1.000000" stroke="none" 
	d="
M137.109100,100.401917 
	C138.395218,102.007637 140.046326,103.877731 140.753387,106.054482 
	C141.815414,109.323967 142.257584,112.800690 142.882935,116.204071 
	C143.302597,118.487991 142.886658,120.255325 139.555328,119.998611 
	C141.412216,113.276749 138.116837,107.162994 137.109100,100.401917 
z"/>
<path fill="#3F95D1" opacity="1.000000" stroke="none" 
	d="
M251.853683,114.919930 
	C246.366348,115.818970 240.796173,116.326530 234.763763,116.680222 
	C239.806580,113.079422 245.503052,111.306244 251.853683,114.919930 
z"/>
<path fill="#3F95D1" opacity="1.000000" stroke="none" 
	d="
M152.645370,87.985291 
	C149.223038,90.104836 145.448975,92.043007 141.279846,93.969711 
	C143.842285,87.626709 146.567291,86.156754 152.645370,87.985291 
z"/>
<path fill="#3F95D1" opacity="1.000000" stroke="none" 
	d="
M145.033813,152.162781 
	C145.101608,152.997208 145.111954,155.189606 144.946823,155.202896 
	C141.150146,155.508636 137.334351,155.577133 133.278931,155.428223 
	C136.988708,154.279648 140.941650,153.392670 145.033813,152.162781 
z"/>
<path fill="#3F95D1" opacity="1.000000" stroke="none" 
	d="
M145.108475,126.399986 
	C146.019226,126.621574 147.352936,127.075996 147.636795,127.894508 
	C148.602264,130.678558 149.416748,133.558044 149.854996,136.466461 
	C150.137360,138.340363 150.917328,141.094391 146.809631,140.737488 
	C145.935318,135.998428 145.492813,131.399048 145.108475,126.399986 
z"/>
<path fill="#3F95D1" opacity="1.000000" stroke="none" 
	d="
M292.947327,109.620377 
	C290.151825,110.930893 287.189301,111.904251 283.799561,112.735695 
	C283.703400,110.879807 284.034363,109.165840 284.600616,106.233482 
	C287.460602,107.299805 290.120453,108.291519 292.947327,109.620377 
z"/>
<path fill="#3F95D1" opacity="1.000000" stroke="none" 
	d="
M238.097015,165.414764 
	C239.077988,165.757996 240.636505,166.410553 240.779770,167.292923 
	C241.215576,169.976883 241.104950,172.749588 241.078079,175.796356 
	C239.975174,172.679718 239.001266,169.254440 238.097015,165.414764 
z"/>
<path fill="#3F95D1" opacity="1.000000" stroke="none" 
	d="
M255.950470,134.622833 
	C253.345474,134.966080 250.576553,134.974625 247.346191,134.970734 
	C248.891907,130.991104 251.837418,130.769348 255.950470,134.622833 
z"/>
<path fill="#3F95D1" opacity="1.000000" stroke="none" 
	d="
M275.103210,139.237289 
	C276.112854,140.362778 277.337402,141.778381 277.816071,143.412521 
	C277.970001,143.937881 276.156891,145.039459 274.803223,145.739197 
	C274.584778,143.604721 274.806793,141.608444 275.103210,139.237289 
z"/>
<path fill="#3F95D1" opacity="1.000000" stroke="none" 
	d="
M278.102600,129.158813 
	C279.039032,129.827515 279.902191,130.799850 280.765320,131.772186 
	C279.820709,132.180603 278.876068,132.589020 277.549011,132.999222 
	C277.454163,131.821472 277.741730,130.641953 278.102600,129.158813 
z"/>
<path fill="#3F95D1" opacity="1.000000" stroke="none" 
	d="
M238.645081,154.030731 
	C240.376587,156.480560 240.341446,158.249969 236.273895,157.969147 
	C236.703003,156.694885 237.521255,155.431534 238.645081,154.030731 
z"/>
<path fill="#3F95D1" opacity="1.000000" stroke="none" 
	d="
M146.403610,145.694672 
	C146.376846,147.213547 152.655289,149.621613 145.771423,150.733002 
	C145.614716,149.056305 145.870987,147.522202 146.403610,145.694672 
z"/>
<path fill="#3F95D1" opacity="1.000000" stroke="none" 
	d="
M221.874023,126.781746 
	C222.637314,127.438454 223.147995,128.261139 223.658676,129.083817 
	C222.665588,129.388306 221.672485,129.692795 220.261200,129.998245 
	C220.435806,128.982040 221.028595,127.964882 221.874023,126.781746 
z"/>
<path fill="#3F95D1" opacity="1.000000" stroke="none" 
	d="
M274.103455,147.185547 
	C275.054047,147.712509 275.931580,148.564270 276.809082,149.416016 
	C275.929169,149.902496 275.049255,150.389008 273.743835,150.740356 
	C273.555695,149.573578 273.793060,148.541962 274.103455,147.185547 
z"/>
<path fill="#3F95D1" opacity="1.000000" stroke="none" 
	d="
M268.404907,167.921143 
	C268.968567,166.568146 269.827179,165.089844 270.867157,163.859604 
	C270.265625,165.337067 269.482758,166.566467 268.404907,167.921143 
z"/>
<path fill="#3F95D1" opacity="1.000000" stroke="none" 
	d="
M280.075043,170.923798 
	C281.006622,170.466187 282.202362,170.106003 283.751373,169.898483 
	C282.849518,170.374512 281.594330,170.697861 280.075043,170.923798 
z"/>
<path fill="#3F95D1" opacity="1.000000" stroke="none" 
	d="
M246.094055,137.341797 
	C246.985077,137.656403 247.803528,138.312469 248.621964,138.968536 
	C247.780975,139.268585 246.940002,139.568634 245.715286,139.728424 
	C245.561523,138.953186 245.791504,138.318222 246.094055,137.341797 
z"/>
<path fill="#3F95D1" opacity="1.000000" stroke="none" 
	d="
M240.886337,149.780457 
	C241.577026,150.040100 242.031570,150.454361 242.486099,150.868622 
	C241.872131,151.234909 241.258179,151.601196 240.264526,151.962845 
	C240.139938,151.283829 240.395065,150.609467 240.886337,149.780457 
z"/>
<path fill="#3F95D1" opacity="1.000000" stroke="none" 
	d="
M216.886337,133.780457 
	C217.577026,134.040100 218.031570,134.454361 218.486099,134.868622 
	C217.872147,135.234924 217.258194,135.601212 216.264526,135.962860 
	C216.139938,135.283829 216.395065,134.609467 216.886337,133.780457 
z"/>
<path fill="#3F95D1" opacity="1.000000" stroke="none" 
	d="
M218.882614,130.783798 
	C219.576767,131.045456 220.031204,131.464737 220.485641,131.884018 
	C219.861267,132.251572 219.236893,132.619125 218.227753,132.993103 
	C218.109619,132.313492 218.376251,131.627457 218.882614,130.783798 
z"/>
<path fill="#3F95D1" opacity="1.000000" stroke="none" 
	d="
M233.002701,117.027969 
	C233.232910,117.849846 233.194885,118.691299 233.156860,119.532745 
	C232.474945,119.342758 231.793015,119.152771 230.962616,118.569290 
	C231.454254,117.799706 232.094360,117.423615 233.002701,117.027969 
z"/>
<path fill="#3F95D1" opacity="1.000000" stroke="none" 
	d="
M228.002716,120.027969 
	C228.232925,120.849846 228.194901,121.691299 228.156860,122.532745 
	C227.474945,122.342758 226.793015,122.152771 225.962616,121.569290 
	C226.454254,120.799713 227.094360,120.423630 228.002716,120.027969 
z"/>
<path fill="#3F95D1" opacity="1.000000" stroke="none" 
	d="
M244.082794,144.049500 
	C244.623383,144.161514 245.073578,144.510117 245.523773,144.858734 
	C244.973999,145.232880 244.424225,145.607040 243.520538,145.991089 
	C243.441895,145.429337 243.717163,144.857712 244.082794,144.049500 
z"/>
<path fill="#3F95D1" opacity="1.000000" stroke="none" 
	d="
M210.050018,148.271271 
	C210.645935,148.316086 211.125229,148.629807 211.604523,148.943512 
	C211.003433,149.292404 210.402359,149.641296 209.483978,149.995575 
	C209.422241,149.514038 209.677826,149.027100 210.050018,148.271271 
z"/>
<path fill="#3F95D1" opacity="1.000000" stroke="none" 
	d="
M281.084900,120.076218 
	C281.596405,120.208900 282.018677,120.586937 282.440948,120.964981 
	C281.980591,121.259491 281.520203,121.554008 280.665466,121.750877 
	C280.512634,121.209343 280.754181,120.765457 281.084900,120.076218 
z"/>
<path fill="#3F95D1" opacity="1.000000" stroke="none" 
	d="
M283.084900,114.076218 
	C283.596405,114.208900 284.018677,114.586937 284.440948,114.964981 
	C283.980591,115.259499 283.520203,115.554016 282.665466,115.750885 
	C282.512665,115.209343 282.754181,114.765457 283.084900,114.076218 
z"/>
<path fill="#3F95D1" opacity="1.000000" stroke="none" 
	d="
M282.084900,117.076218 
	C282.596405,117.208900 283.018677,117.586937 283.440948,117.964981 
	C282.980591,118.259506 282.520203,118.554024 281.665466,118.750885 
	C281.512634,118.209343 281.754181,117.765457 282.084900,117.076218 
z"/>
<path fill="#3F95D1" opacity="1.000000" stroke="none" 
	d="
M280.084900,123.076218 
	C280.596405,123.208900 281.018677,123.586937 281.440948,123.964981 
	C280.980591,124.259499 280.520203,124.554016 279.665466,124.750885 
	C279.512634,124.209343 279.754181,123.765457 280.084900,123.076218 
z"/>
<path fill="#3F95D1" opacity="1.000000" stroke="none" 
	d="
M273.084930,152.076172 
	C273.596405,152.208862 274.018677,152.586899 274.440948,152.964935 
	C273.980560,153.259445 273.520203,153.553970 272.665466,153.750854 
	C272.512665,153.209351 272.754211,152.765442 273.084930,152.076172 
z"/>
<path fill="#3F95D1" opacity="1.000000" stroke="none" 
	d="
M279.084930,126.076225 
	C279.596405,126.208908 280.018677,126.586952 280.440948,126.964996 
	C279.980560,127.259499 279.520203,127.554001 278.665466,127.750870 
	C278.512634,127.209343 278.754181,126.765465 279.084930,126.076225 
z"/>
<path fill="#3F95D1" opacity="1.000000" stroke="none" 
	d="
M245.084915,141.076187 
	C245.596390,141.208878 246.018692,141.586914 246.440979,141.964966 
	C245.980591,142.259476 245.520218,142.554001 244.665482,142.750854 
	C244.512665,142.209320 244.754196,141.765442 245.084915,141.076187 
z"/>
<path fill="#3F95D1" opacity="1.000000" stroke="none" 
	d="
M276.044159,136.286499 
	C276.630951,136.356644 277.095306,136.711761 277.559662,137.066864 
	C277.034882,137.328583 276.510071,137.590317 275.644440,137.733124 
	C275.509613,137.266617 275.715637,136.919052 276.044159,136.286499 
z"/>
<path fill="#3F95D1" opacity="1.000000" stroke="none" 
	d="
M249.984924,182.290390 
	C250.092239,182.034363 250.296005,182.026749 250.805725,182.030487 
	C250.768234,182.207520 250.424820,182.373169 249.984924,182.290390 
z"/>
<path fill="#3F95D1" opacity="1.000000" stroke="none" 
	d="
M222.984924,173.290390 
	C223.092239,173.034363 223.296005,173.026749 223.805725,173.030487 
	C223.768234,173.207504 223.424805,173.373169 222.984924,173.290390 
z"/>
<path fill="#08609F" opacity="1.000000" stroke="none" 
	d="
M797.757446,131.014801 
	C798.523132,130.962067 798.935120,130.967178 799.653442,130.929291 
	C796.919067,136.876724 793.878418,142.867142 790.501709,148.925781 
	C789.623901,148.963379 789.082153,148.932739 788.291077,149.006714 
	C791.162415,143.098465 794.283142,137.085556 797.757446,131.014801 
z"/>
<path fill="#08609F" opacity="1.000000" stroke="none" 
	d="
M859.994873,228.265045 
	C860.094299,228.035385 860.296997,228.030106 860.804077,228.032715 
	C860.771667,228.190201 860.434875,228.339798 859.994873,228.265045 
z"/>
<path fill="#08609F" opacity="1.000000" stroke="none" 
	d="
M893.735779,226.161896 
	C893.882874,226.418884 893.729004,226.627350 893.337891,226.880371 
	C893.049133,226.607895 893.160461,226.337387 893.735779,226.161896 
z"/>
<path fill="#08609F" opacity="1.000000" stroke="none" 
	d="
M603.994873,182.265045 
	C604.094299,182.035385 604.296997,182.030106 604.804077,182.032715 
	C604.771667,182.190201 604.434875,182.339798 603.994873,182.265045 
z"/>
<path fill="#08609F" opacity="1.000000" stroke="none" 
	d="
M762.994873,174.265030 
	C763.094299,174.035385 763.296997,174.030106 763.804077,174.032700 
	C763.771667,174.190186 763.434875,174.339783 762.994873,174.265030 
z"/>
<path fill="#08609F" opacity="1.000000" stroke="none" 
	d="
M727.994873,174.265045 
	C728.094299,174.035385 728.296997,174.030106 728.804077,174.032715 
	C728.771667,174.190201 728.434875,174.339798 727.994873,174.265045 
z"/>
<path fill="#08609F" opacity="1.000000" stroke="none" 
	d="
M768.264221,172.838104 
	C768.117126,172.581116 768.270996,172.372650 768.662109,172.119629 
	C768.950867,172.392105 768.839539,172.662613 768.264221,172.838104 
z"/>
<path fill="#08609F" opacity="1.000000" stroke="none" 
	d="
M734.264221,172.838104 
	C734.117126,172.581116 734.270996,172.372650 734.662109,172.119629 
	C734.950867,172.392105 734.839539,172.662613 734.264221,172.838104 
z"/>
<path fill="#08609F" opacity="1.000000" stroke="none" 
	d="
M780.264221,161.838104 
	C780.117126,161.581116 780.270996,161.372650 780.662109,161.119629 
	C780.950867,161.392105 780.839539,161.662613 780.264221,161.838104 
z"/>
<path fill="#000000" opacity="1.000000" stroke="none" 
	d="
M509.332825,224.295197 
	C506.560120,228.425735 504.153961,232.352814 501.282379,235.903473 
	C500.641754,236.695526 497.729004,236.802643 497.005402,236.080215 
	C496.120148,235.196381 495.769318,232.778107 496.350708,231.595016 
	C499.065277,226.071396 501.948059,220.597198 505.242493,215.404633 
	C507.138092,212.416840 509.931854,209.998901 512.321289,207.324448 
	C512.961060,207.706085 513.600891,208.087723 514.240662,208.469360 
	C512.670898,213.631531 511.101196,218.793701 509.332825,224.295197 
z"/>
<path fill="#000000" opacity="1.000000" stroke="none" 
	d="
M682.111877,152.957870 
	C685.855103,145.003403 691.009766,138.215179 698.224365,133.110886 
	C696.838501,142.340958 690.311646,147.713623 683.124512,153.020996 
	C682.562317,153.028687 682.111877,152.957870 682.111877,152.957870 
z"/>
<path fill="#08609F" opacity="1.000000" stroke="none" 
	d="
M681.774536,153.011078 
	C682.111877,152.957870 682.562317,153.028687 682.779907,153.096939 
	C682.388000,153.991867 681.778442,154.818558 681.168945,155.645233 
	C680.843628,155.359283 680.195923,154.913300 680.245483,154.813507 
	C680.556274,154.187546 681.022400,153.638672 681.774536,153.011078 
z"/>
<path fill="#08609F" opacity="1.000000" stroke="none" 
	d="
M652.338013,55.881989 
	C652.048401,55.609615 652.159546,55.338467 652.735474,55.162022 
	C652.883057,55.419228 652.729248,55.628052 652.338013,55.881989 
z"/>
<path fill="#08609F" opacity="1.000000" stroke="none" 
	d="
M700.117920,102.337997 
	C700.390259,102.048317 700.661438,102.159431 700.837891,102.735352 
	C700.580688,102.883011 700.371826,102.729218 700.117920,102.337997 
z"/>
<path fill="#08609F" opacity="1.000000" stroke="none" 
	d="
M698.882080,109.662003 
	C698.973755,109.836151 698.497375,109.839462 698.497375,109.839462 
	C698.497375,109.839462 698.160278,109.502808 698.162109,109.264648 
	C698.419312,109.116989 698.628174,109.270782 698.882080,109.662003 
z"/>
<path fill="#08609F" opacity="1.000000" stroke="none" 
	d="
M702.661987,109.118027 
	C702.951599,109.390404 702.840454,109.661545 702.264526,109.837982 
	C702.116943,109.580780 702.270752,109.371956 702.661987,109.118027 
z"/>
<path fill="#08609F" opacity="1.000000" stroke="none" 
	d="
M768.117920,124.337997 
	C768.390259,124.048317 768.661438,124.159431 768.837891,124.735352 
	C768.580688,124.883011 768.371826,124.729218 768.117920,124.337997 
z"/>
<path fill="#08609F" opacity="1.000000" stroke="none" 
	d="
M668.338074,131.882004 
	C668.048340,131.609634 668.159485,131.338470 668.735474,131.162018 
	C668.883179,131.419281 668.729431,131.628113 668.338074,131.882004 
z"/>
<path fill="#000000" opacity="1.000000" stroke="none" 
	d="
M861.956421,213.805481 
	C861.252258,215.524155 860.847168,217.081070 859.889038,218.135605 
	C858.563049,219.595169 856.820923,220.676682 855.257019,221.920074 
	C854.236206,220.384827 852.701660,218.979218 852.276245,217.293686 
	C849.047180,204.498398 860.691223,185.920425 873.557739,183.096481 
	C873.825378,183.037720 874.159241,183.280579 875.320068,183.671967 
	C870.858948,193.641571 866.433899,203.530624 861.956421,213.805481 
z"/>
<path fill="#000000" opacity="1.000000" stroke="none" 
	d="
M371.657623,131.458099 
	C368.698425,145.439301 362.423340,157.465210 353.472992,168.315613 
	C350.619080,171.775345 349.914795,169.550156 349.389282,167.570938 
	C348.768555,165.232910 348.051270,162.018250 349.134918,160.280792 
	C354.880249,151.069260 361.113342,142.156769 367.365967,133.273361 
	C368.148132,132.162094 370.044769,131.835220 371.657623,131.458099 
z"/>
<path fill="#000000" opacity="1.000000" stroke="none" 
	d="
M141.571716,159.357666 
	C140.657852,164.636017 136.771500,165.491302 131.744827,166.170578 
	C133.040192,160.297714 137.946884,160.769638 141.571716,159.357666 
z"/>
</svg>